<svg width="703" height="528" viewBox="0 0 703 528" fill="none" xmlns="http://www.w3.org/2000/svg">
<rect y="176.231" width="87.875" height="87.875" fill="#0F46C1"/>
<rect x="88" width="175.75" height="175.75" fill="#FFA1AA"/>
<rect x="175.75" y="351.981" width="87.875" height="87.875" fill="#0099FF"/>
<rect x="615.125" y="439.856" width="87.875" height="87.875" fill="#FFDA55"/>
<rect x="615.125" y="88.3564" width="87.875" height="175.75" fill="#0F46C1"/>
<path d="M87.875 131.938C87.875 137.707 86.7385 143.421 84.5305 148.752C82.3224 154.082 79.086 158.926 75.006 163.006C70.926 167.086 66.0824 170.322 60.7517 172.53C55.4209 174.739 49.7075 175.875 43.9375 175.875C38.1675 175.875 32.4541 174.739 27.1233 172.53C21.7926 170.322 16.949 167.086 12.869 163.006C8.78902 158.926 5.55261 154.082 3.34454 148.752C1.13648 143.421 -5.04425e-07 137.707 0 131.937L43.9375 131.938H87.875Z" fill="#0099FF"/>
<path d="M703 264.106C691.46 264.106 680.033 261.833 669.372 257.417C658.71 253.001 649.023 246.528 640.863 238.368C632.703 230.209 626.23 220.521 621.814 209.86C617.398 199.198 615.125 187.771 615.125 176.231C615.125 164.692 617.398 153.265 621.814 142.603C626.23 131.942 632.703 122.254 640.863 114.094C649.023 105.934 658.71 99.4617 669.372 95.0455C680.033 90.6294 691.46 88.3564 703 88.3564L703 264.106Z" fill="#0099FF"/>
<path d="M263.625 264.106C263.625 275.646 261.352 287.073 256.936 297.735C252.52 308.396 246.047 318.084 237.887 326.243C229.727 334.403 220.04 340.876 209.378 345.292C198.717 349.708 187.29 351.981 175.75 351.981L175.75 264.106H263.625Z" fill="#9835FF"/>
<circle cx="658.938" cy="394.938" r="43.9375" fill="#FFA1AA"/>
</svg>
